<svg width="1920" height="1080" viewBox="0 0 1920 1080" fill="none" xmlns="http://www.w3.org/2000/svg">
<rect width="1920" height="1080" fill="white"/>
<rect width="1920" height="95" fill="#5F9EFC"/>
<path d="M14.179 59V35.7273H23.4972C25.2093 35.7273 26.6373 35.9811 27.7812 36.4886C28.9252 36.9962 29.785 37.7008 30.3608 38.6023C30.9366 39.4962 31.2244 40.5265 31.2244 41.6932C31.2244 42.6023 31.0426 43.4015 30.679 44.0909C30.3153 44.7727 29.8153 45.3333 29.179 45.7727C28.5502 46.2045 27.8305 46.5114 27.0199 46.6932V46.9205C27.9063 46.9583 28.7358 47.2083 29.5085 47.6705C30.2888 48.1326 30.9214 48.7803 31.4062 49.6136C31.8911 50.4394 32.1335 51.4242 32.1335 52.5682C32.1335 53.803 31.8267 54.9053 31.2131 55.875C30.607 56.8371 29.7093 57.5985 28.5199 58.1591C27.3305 58.7197 25.8646 59 24.1222 59H14.179ZM19.0994 54.9773H23.1108C24.482 54.9773 25.482 54.7159 26.1108 54.1932C26.7396 53.6629 27.054 52.9583 27.054 52.0795C27.054 51.4356 26.8987 50.8674 26.5881 50.375C26.2775 49.8826 25.8343 49.4962 25.2585 49.2159C24.6903 48.9356 24.0123 48.7955 23.2244 48.7955H19.0994V54.9773ZM19.0994 45.4659H22.7472C23.4214 45.4659 24.0199 45.3485 24.5426 45.1136C25.0729 44.8712 25.4896 44.5303 25.7926 44.0909C26.1032 43.6515 26.2585 43.125 26.2585 42.5114C26.2585 41.6705 25.9593 40.9924 25.3608 40.4773C24.7699 39.9621 23.929 39.7045 22.8381 39.7045H19.0994V45.4659ZM36.2784 35.7273H41.0625V43.2273C41.0625 44.1212 41.2178 44.8409 41.5284 45.3864C41.839 45.9242 42.3201 46.3144 42.9716 46.5568C43.6307 46.7917 44.4754 46.9091 45.5057 46.9091C45.8693 46.9091 46.2973 46.8977 46.7898 46.875C47.2822 46.8447 47.7898 46.803 48.3125 46.75C48.8428 46.697 49.3428 46.6326 49.8125 46.5568C50.2822 46.4811 50.6723 46.3939 50.983 46.2955V50.1818C50.6648 50.2879 50.267 50.3826 49.7898 50.4659C49.3201 50.5417 48.8239 50.6098 48.3011 50.6705C47.7784 50.7235 47.2708 50.7652 46.7784 50.7955C46.286 50.8258 45.8617 50.8409 45.5057 50.8409C43.6345 50.8409 42.0057 50.5758 40.6193 50.0455C39.233 49.5076 38.161 48.678 37.4034 47.5568C36.6534 46.4356 36.2784 44.9924 36.2784 43.2273V35.7273ZM50.1307 35.7273H54.9375V59H50.1307V35.7273ZM63.8153 59H58.5426L66.5767 35.7273H72.9176L80.9403 59H75.6676L69.8381 41.0455H69.6562L63.8153 59ZM63.4858 49.8523H75.9403V53.6932H63.4858V49.8523ZM80.0114 39.7841V35.7273H99.125V39.7841H92V59H87.1364V39.7841H80.0114ZM102.273 59V35.7273H117.955V39.7841H107.193V45.3295H117.148V49.3864H107.193V54.9432H118V59H102.273Z" fill="white"/>
<rect x="737" y="354" width="445" height="232" rx="15" fill="#5F9EFC"/>
<path d="M746 430C746 421.716 752.716 415 761 415H1159C1167.28 415 1174 421.716 1174 430V438C1174 446.284 1167.28 453 1159 453H761C752.716 453 746 446.284 746 438V430Z" fill="white"/>
<path d="M748.818 383.727H751.591V402.045H751.818L764.545 383.727H767.273V407H764.455V388.727H764.227L751.545 407H748.818V383.727ZM782.094 403.364L788.185 389.545H790.73L783.185 407H781.003L773.594 389.545H776.094L782.094 403.364ZM775.23 389.545V407H772.548V389.545H775.23ZM788.957 407V389.545H791.639V407H788.957ZM807.048 407V392H802.412C801.366 392 800.545 392.242 799.946 392.727C799.348 393.212 799.048 393.879 799.048 394.727C799.048 395.561 799.317 396.216 799.855 396.693C800.401 397.17 801.147 397.409 802.094 397.409H807.73V399.909H802.094C800.912 399.909 799.893 399.701 799.037 399.284C798.181 398.867 797.522 398.273 797.06 397.5C796.598 396.72 796.366 395.795 796.366 394.727C796.366 393.652 796.609 392.727 797.094 391.955C797.579 391.182 798.272 390.587 799.173 390.17C800.082 389.754 801.162 389.545 802.412 389.545H809.594V407H807.048ZM795.412 407L800.366 398.318H803.276L798.321 407H795.412ZM823.517 407V389.545H837.244V407H834.562V392.045H826.199V407H823.517ZM849.233 407.364C847.657 407.364 846.275 406.989 845.085 406.239C843.903 405.489 842.979 404.439 842.312 403.091C841.653 401.742 841.324 400.167 841.324 398.364C841.324 396.545 841.653 394.958 842.312 393.602C842.979 392.246 843.903 391.193 845.085 390.443C846.275 389.693 847.657 389.318 849.233 389.318C850.809 389.318 852.188 389.693 853.369 390.443C854.559 391.193 855.483 392.246 856.142 393.602C856.809 394.958 857.142 396.545 857.142 398.364C857.142 400.167 856.809 401.742 856.142 403.091C855.483 404.439 854.559 405.489 853.369 406.239C852.188 406.989 850.809 407.364 849.233 407.364ZM849.233 404.955C850.43 404.955 851.415 404.648 852.188 404.034C852.96 403.42 853.532 402.614 853.903 401.614C854.275 400.614 854.46 399.53 854.46 398.364C854.46 397.197 854.275 396.11 853.903 395.102C853.532 394.095 852.96 393.28 852.188 392.659C851.415 392.038 850.43 391.727 849.233 391.727C848.036 391.727 847.051 392.038 846.278 392.659C845.506 393.28 844.934 394.095 844.562 395.102C844.191 396.11 844.006 397.197 844.006 398.364C844.006 399.53 844.191 400.614 844.562 401.614C844.934 402.614 845.506 403.42 846.278 404.034C847.051 404.648 848.036 404.955 849.233 404.955ZM859.69 407V404.5H860.327C860.849 404.5 861.285 404.398 861.634 404.193C861.982 403.981 862.262 403.614 862.474 403.091C862.694 402.561 862.861 401.826 862.974 400.886C863.096 399.939 863.183 398.735 863.236 397.273L863.554 389.545H875.19V407H872.509V392.045H866.099L865.827 398.273C865.766 399.705 865.637 400.966 865.44 402.057C865.251 403.14 864.959 404.049 864.565 404.784C864.179 405.519 863.664 406.072 863.02 406.443C862.376 406.814 861.569 407 860.599 407H859.69ZM882.429 395.864H887.429C889.474 395.864 891.039 396.383 892.122 397.42C893.205 398.458 893.747 399.773 893.747 401.364C893.747 402.409 893.505 403.36 893.02 404.216C892.535 405.064 891.823 405.742 890.884 406.25C889.944 406.75 888.793 407 887.429 407H880.111V389.545H882.793V404.5H887.429C888.49 404.5 889.361 404.22 890.043 403.659C890.724 403.098 891.065 402.379 891.065 401.5C891.065 400.576 890.724 399.822 890.043 399.239C889.361 398.655 888.49 398.364 887.429 398.364H882.429V395.864ZM896.739 402.545H899.602C899.663 403.333 900.019 403.932 900.67 404.341C901.33 404.75 902.186 404.955 903.239 404.955C904.314 404.955 905.235 404.735 906 404.295C906.765 403.848 907.148 403.129 907.148 402.136C907.148 401.553 907.004 401.045 906.716 400.614C906.428 400.174 906.023 399.833 905.5 399.591C904.977 399.348 904.36 399.227 903.648 399.227H900.648V396.818H903.648C904.716 396.818 905.504 396.576 906.011 396.091C906.527 395.606 906.784 395 906.784 394.273C906.784 393.492 906.508 392.867 905.955 392.398C905.402 391.92 904.617 391.682 903.602 391.682C902.58 391.682 901.727 391.913 901.045 392.375C900.364 392.83 900.004 393.417 899.966 394.136H897.148C897.178 393.197 897.466 392.367 898.011 391.648C898.557 390.92 899.299 390.352 900.239 389.943C901.178 389.527 902.254 389.318 903.466 389.318C904.693 389.318 905.758 389.534 906.659 389.966C907.568 390.39 908.269 390.97 908.761 391.705C909.261 392.432 909.511 393.258 909.511 394.182C909.511 395.167 909.235 395.962 908.682 396.568C908.129 397.174 907.436 397.606 906.602 397.864V398.045C907.261 398.091 907.833 398.303 908.318 398.682C908.811 399.053 909.193 399.542 909.466 400.148C909.739 400.746 909.875 401.409 909.875 402.136C909.875 403.197 909.591 404.121 909.023 404.909C908.455 405.689 907.674 406.295 906.682 406.727C905.689 407.152 904.557 407.364 903.284 407.364C902.049 407.364 900.943 407.163 899.966 406.761C898.989 406.352 898.212 405.788 897.636 405.068C897.068 404.341 896.769 403.5 896.739 402.545ZM920.733 407.364C919.157 407.364 917.775 406.989 916.585 406.239C915.403 405.489 914.479 404.439 913.812 403.091C913.153 401.742 912.824 400.167 912.824 398.364C912.824 396.545 913.153 394.958 913.812 393.602C914.479 392.246 915.403 391.193 916.585 390.443C917.775 389.693 919.157 389.318 920.733 389.318C922.309 389.318 923.688 389.693 924.869 390.443C926.059 391.193 926.983 392.246 927.642 393.602C928.309 394.958 928.642 396.545 928.642 398.364C928.642 400.167 928.309 401.742 927.642 403.091C926.983 404.439 926.059 405.489 924.869 406.239C923.688 406.989 922.309 407.364 920.733 407.364ZM920.733 404.955C921.93 404.955 922.915 404.648 923.688 404.034C924.46 403.42 925.032 402.614 925.403 401.614C925.775 400.614 925.96 399.53 925.96 398.364C925.96 397.197 925.775 396.11 925.403 395.102C925.032 394.095 924.46 393.28 923.688 392.659C922.915 392.038 921.93 391.727 920.733 391.727C919.536 391.727 918.551 392.038 917.778 392.659C917.006 393.28 916.434 394.095 916.062 395.102C915.691 396.11 915.506 397.197 915.506 398.364C915.506 399.53 915.691 400.614 916.062 401.614C916.434 402.614 917.006 403.42 917.778 404.034C918.551 404.648 919.536 404.955 920.733 404.955ZM932.736 407V389.545H939.872C941.751 389.545 943.243 389.97 944.349 390.818C945.455 391.667 946.009 392.788 946.009 394.182C946.009 395.242 945.694 396.064 945.065 396.648C944.437 397.223 943.63 397.614 942.645 397.818C943.289 397.909 943.914 398.136 944.52 398.5C945.134 398.864 945.641 399.364 946.043 400C946.444 400.629 946.645 401.402 946.645 402.318C946.645 403.212 946.418 404.011 945.963 404.716C945.509 405.42 944.857 405.977 944.009 406.386C943.16 406.795 942.145 407 940.963 407H932.736ZM935.281 404.545H940.963C941.887 404.545 942.611 404.326 943.134 403.886C943.656 403.447 943.918 402.848 943.918 402.091C943.918 401.189 943.656 400.481 943.134 399.966C942.611 399.443 941.887 399.182 940.963 399.182H935.281V404.545ZM935.281 396.864H939.872C940.592 396.864 941.209 396.765 941.724 396.568C942.24 396.364 942.634 396.076 942.906 395.705C943.187 395.326 943.327 394.879 943.327 394.364C943.327 393.629 943.02 393.053 942.406 392.636C941.793 392.212 940.948 392 939.872 392H935.281V396.864ZM955.841 407.409C954.735 407.409 953.731 407.201 952.83 406.784C951.928 406.36 951.212 405.75 950.682 404.955C950.152 404.152 949.886 403.182 949.886 402.045C949.886 401.045 950.083 400.235 950.477 399.614C950.871 398.985 951.398 398.492 952.057 398.136C952.716 397.78 953.443 397.515 954.239 397.341C955.042 397.159 955.848 397.015 956.659 396.909C957.72 396.773 958.58 396.67 959.239 396.602C959.905 396.527 960.39 396.402 960.693 396.227C961.004 396.053 961.159 395.75 961.159 395.318V395.227C961.159 394.106 960.852 393.235 960.239 392.614C959.633 391.992 958.712 391.682 957.477 391.682C956.197 391.682 955.193 391.962 954.466 392.523C953.739 393.083 953.227 393.682 952.932 394.318L950.386 393.409C950.841 392.348 951.447 391.523 952.205 390.932C952.97 390.333 953.803 389.917 954.705 389.682C955.614 389.439 956.508 389.318 957.386 389.318C957.947 389.318 958.591 389.386 959.318 389.523C960.053 389.652 960.761 389.92 961.443 390.33C962.133 390.739 962.705 391.356 963.159 392.182C963.614 393.008 963.841 394.114 963.841 395.5V407H961.159V404.636H961.023C960.841 405.015 960.538 405.42 960.114 405.852C959.689 406.284 959.125 406.652 958.42 406.955C957.716 407.258 956.856 407.409 955.841 407.409ZM956.25 405C957.311 405 958.205 404.792 958.932 404.375C959.667 403.958 960.22 403.42 960.591 402.761C960.97 402.102 961.159 401.409 961.159 400.682V398.227C961.045 398.364 960.795 398.489 960.409 398.602C960.03 398.708 959.591 398.803 959.091 398.886C958.598 398.962 958.117 399.03 957.648 399.091C957.186 399.144 956.811 399.189 956.523 399.227C955.826 399.318 955.174 399.466 954.568 399.67C953.97 399.867 953.485 400.167 953.114 400.568C952.75 400.962 952.568 401.5 952.568 402.182C952.568 403.114 952.913 403.818 953.602 404.295C954.299 404.765 955.182 405 956.25 405ZM966.361 392.045V389.545H980.543V392.045H974.815V407H972.134V392.045H966.361ZM990.866 407.364C989.185 407.364 987.734 406.992 986.514 406.25C985.302 405.5 984.366 404.455 983.707 403.114C983.056 401.765 982.73 400.197 982.73 398.409C982.73 396.621 983.056 395.045 983.707 393.682C984.366 392.311 985.283 391.242 986.457 390.477C987.639 389.705 989.018 389.318 990.594 389.318C991.503 389.318 992.401 389.47 993.287 389.773C994.173 390.076 994.98 390.568 995.707 391.25C996.435 391.924 997.014 392.818 997.446 393.932C997.878 395.045 998.094 396.417 998.094 398.045V399.182H984.639V396.864H995.366C995.366 395.879 995.17 395 994.776 394.227C994.389 393.455 993.836 392.845 993.116 392.398C992.404 391.951 991.563 391.727 990.594 391.727C989.526 391.727 988.601 391.992 987.821 392.523C987.048 393.045 986.454 393.727 986.037 394.568C985.62 395.409 985.412 396.311 985.412 397.273V398.818C985.412 400.136 985.639 401.254 986.094 402.17C986.556 403.08 987.196 403.773 988.014 404.25C988.832 404.72 989.783 404.955 990.866 404.955C991.571 404.955 992.207 404.856 992.776 404.659C993.351 404.455 993.848 404.152 994.264 403.75C994.681 403.341 995.003 402.833 995.23 402.227L997.821 402.955C997.548 403.833 997.09 404.606 996.446 405.273C995.802 405.932 995.007 406.447 994.06 406.818C993.113 407.182 992.048 407.364 990.866 407.364ZM1000.63 407V404.5H1001.26C1001.79 404.5 1002.22 404.398 1002.57 404.193C1002.92 403.981 1003.2 403.614 1003.41 403.091C1003.63 402.561 1003.8 401.826 1003.91 400.886C1004.03 399.939 1004.12 398.735 1004.17 397.273L1004.49 389.545H1016.13V407H1013.45V392.045H1007.04L1006.76 398.273C1006.7 399.705 1006.57 400.966 1006.38 402.057C1006.19 403.14 1005.9 404.049 1005.5 404.784C1005.12 405.519 1004.6 406.072 1003.96 406.443C1003.31 406.814 1002.51 407 1001.54 407H1000.63ZM1031.55 407V392H1026.91C1025.87 392 1025.04 392.242 1024.45 392.727C1023.85 393.212 1023.55 393.879 1023.55 394.727C1023.55 395.561 1023.82 396.216 1024.36 396.693C1024.9 397.17 1025.65 397.409 1026.59 397.409H1032.23V399.909H1026.59C1025.41 399.909 1024.39 399.701 1023.54 399.284C1022.68 398.867 1022.02 398.273 1021.56 397.5C1021.1 396.72 1020.87 395.795 1020.87 394.727C1020.87 393.652 1021.11 392.727 1021.59 391.955C1022.08 391.182 1022.77 390.587 1023.67 390.17C1024.58 389.754 1025.66 389.545 1026.91 389.545H1034.09V407H1031.55ZM1019.91 407L1024.87 398.318H1027.78L1022.82 407H1019.91ZM1040.97 407.182C1040.41 407.182 1039.93 406.981 1039.53 406.58C1039.13 406.178 1038.93 405.697 1038.93 405.136C1038.93 404.576 1039.13 404.095 1039.53 403.693C1039.93 403.292 1040.41 403.091 1040.97 403.091C1041.53 403.091 1042.01 403.292 1042.41 403.693C1042.82 404.095 1043.02 404.576 1043.02 405.136C1043.02 405.508 1042.92 405.848 1042.73 406.159C1042.55 406.47 1042.3 406.72 1041.99 406.909C1041.69 407.091 1041.35 407.182 1040.97 407.182ZM1040.97 394.227C1040.41 394.227 1039.93 394.027 1039.53 393.625C1039.13 393.223 1038.93 392.742 1038.93 392.182C1038.93 391.621 1039.13 391.14 1039.53 390.739C1039.93 390.337 1040.41 390.136 1040.97 390.136C1041.53 390.136 1042.01 390.337 1042.41 390.739C1042.82 391.14 1043.02 391.621 1043.02 392.182C1043.02 392.553 1042.92 392.894 1042.73 393.205C1042.55 393.515 1042.3 393.765 1041.99 393.955C1041.69 394.136 1041.35 394.227 1040.97 394.227Z" fill="white"/>
<rect x="746" y="531" width="428" height="43" rx="15" fill="white"/>
<path d="M915.119 564V540.727H923.642C925.294 540.727 926.661 541 927.744 541.545C928.828 542.083 929.638 542.814 930.176 543.739C930.714 544.655 930.983 545.689 930.983 546.841C930.983 547.811 930.805 548.629 930.449 549.295C930.093 549.955 929.616 550.485 929.017 550.886C928.426 551.28 927.775 551.568 927.062 551.75V551.977C927.835 552.015 928.589 552.265 929.324 552.727C930.066 553.182 930.68 553.83 931.165 554.67C931.65 555.511 931.892 556.534 931.892 557.739C931.892 558.928 931.612 559.996 931.051 560.943C930.498 561.883 929.642 562.629 928.483 563.182C927.324 563.727 925.843 564 924.04 564H915.119ZM918.631 560.989H923.699C925.381 560.989 926.585 560.663 927.312 560.011C928.04 559.36 928.403 558.545 928.403 557.568C928.403 556.833 928.218 556.159 927.847 555.545C927.475 554.932 926.945 554.443 926.256 554.08C925.574 553.716 924.763 553.534 923.824 553.534H918.631V560.989ZM918.631 550.795H923.335C924.123 550.795 924.831 550.644 925.46 550.341C926.097 550.038 926.6 549.614 926.972 549.068C927.35 548.515 927.54 547.864 927.54 547.114C927.54 546.152 927.203 545.345 926.528 544.693C925.854 544.042 924.82 543.716 923.426 543.716H918.631V550.795ZM943.136 564.352C941.5 564.352 940.072 563.977 938.852 563.227C937.633 562.477 936.686 561.428 936.011 560.08C935.337 558.731 935 557.155 935 555.352C935 553.542 935.337 551.958 936.011 550.602C936.686 549.246 937.633 548.193 938.852 547.443C940.072 546.693 941.5 546.318 943.136 546.318C944.773 546.318 946.201 546.693 947.42 547.443C948.64 548.193 949.587 549.246 950.261 550.602C950.936 551.958 951.273 553.542 951.273 555.352C951.273 557.155 950.936 558.731 950.261 560.08C949.587 561.428 948.64 562.477 947.42 563.227C946.201 563.977 944.773 564.352 943.136 564.352ZM943.148 561.5C944.208 561.5 945.087 561.22 945.784 560.659C946.481 560.098 946.996 559.352 947.33 558.42C947.67 557.489 947.841 556.462 947.841 555.341C947.841 554.227 947.67 553.205 947.33 552.273C946.996 551.333 946.481 550.58 945.784 550.011C945.087 549.443 944.208 549.159 943.148 549.159C942.08 549.159 941.193 549.443 940.489 550.011C939.792 550.58 939.273 551.333 938.932 552.273C938.598 553.205 938.432 554.227 938.432 555.341C938.432 556.462 938.598 557.489 938.932 558.42C939.273 559.352 939.792 560.098 940.489 560.659C941.193 561.22 942.08 561.5 943.148 561.5ZM958.395 559.239L966.088 546.545H969.747V564H966.418V551.295L958.759 564H955.065V546.545H958.395V559.239ZM964.634 540.636H967.429C967.429 541.917 966.974 542.958 966.065 543.761C965.164 544.557 963.944 544.955 962.406 544.955C960.876 544.955 959.66 544.557 958.759 543.761C957.857 542.958 957.406 541.917 957.406 540.636H960.19C960.19 541.205 960.357 541.708 960.69 542.148C961.024 542.58 961.596 542.795 962.406 542.795C963.202 542.795 963.77 542.58 964.111 542.148C964.459 541.716 964.634 541.212 964.634 540.636ZM972.151 549.477V546.545H986.878V549.477H981.185V564H977.866V549.477H972.151ZM993.801 559.239L1001.49 546.545H1005.15V564H1001.82V551.295L994.165 564H990.472V546.545H993.801V559.239Z" fill="black"/>
<path d="M757.818 446V422.727H765.955C767.576 422.727 768.913 423.008 769.966 423.568C771.019 424.121 771.803 424.867 772.318 425.807C772.833 426.739 773.091 427.773 773.091 428.909C773.091 429.909 772.913 430.735 772.557 431.386C772.208 432.038 771.746 432.553 771.17 432.932C770.602 433.311 769.985 433.591 769.318 433.773V434C770.03 434.045 770.746 434.295 771.466 434.75C772.186 435.205 772.788 435.856 773.273 436.705C773.758 437.553 774 438.591 774 439.818C774 440.985 773.735 442.034 773.205 442.966C772.674 443.898 771.837 444.636 770.693 445.182C769.549 445.727 768.061 446 766.227 446H757.818ZM760.636 443.5H766.227C768.068 443.5 769.375 443.144 770.148 442.432C770.928 441.712 771.318 440.841 771.318 439.818C771.318 439.03 771.117 438.303 770.716 437.636C770.314 436.962 769.742 436.424 769 436.023C768.258 435.614 767.379 435.409 766.364 435.409H760.636V443.5ZM760.636 432.955H765.864C766.712 432.955 767.477 432.788 768.159 432.455C768.848 432.121 769.394 431.652 769.795 431.045C770.205 430.439 770.409 429.727 770.409 428.909C770.409 427.886 770.053 427.019 769.341 426.307C768.629 425.587 767.5 425.227 765.955 425.227H760.636V432.955ZM785.358 446.364C783.782 446.364 782.4 445.989 781.21 445.239C780.028 444.489 779.104 443.439 778.438 442.091C777.778 440.742 777.449 439.167 777.449 437.364C777.449 435.545 777.778 433.958 778.438 432.602C779.104 431.246 780.028 430.193 781.21 429.443C782.4 428.693 783.782 428.318 785.358 428.318C786.934 428.318 788.313 428.693 789.494 429.443C790.684 430.193 791.608 431.246 792.267 432.602C792.934 433.958 793.267 435.545 793.267 437.364C793.267 439.167 792.934 440.742 792.267 442.091C791.608 443.439 790.684 444.489 789.494 445.239C788.313 445.989 786.934 446.364 785.358 446.364ZM785.358 443.955C786.555 443.955 787.54 443.648 788.312 443.034C789.085 442.42 789.657 441.614 790.028 440.614C790.4 439.614 790.585 438.53 790.585 437.364C790.585 436.197 790.4 435.11 790.028 434.102C789.657 433.095 789.085 432.28 788.312 431.659C787.54 431.038 786.555 430.727 785.358 430.727C784.161 430.727 783.176 431.038 782.403 431.659C781.631 432.28 781.059 433.095 780.688 434.102C780.316 435.11 780.131 436.197 780.131 437.364C780.131 438.53 780.316 439.614 780.688 440.614C781.059 441.614 781.631 442.42 782.403 443.034C783.176 443.648 784.161 443.955 785.358 443.955ZM797.724 446V422.727H800.406V431.318H800.634C800.83 431.015 801.103 430.629 801.452 430.159C801.808 429.682 802.315 429.258 802.974 428.886C803.641 428.508 804.543 428.318 805.679 428.318C807.149 428.318 808.444 428.686 809.565 429.42C810.687 430.155 811.562 431.197 812.19 432.545C812.819 433.894 813.134 435.485 813.134 437.318C813.134 439.167 812.819 440.769 812.19 442.125C811.562 443.473 810.69 444.519 809.577 445.261C808.463 445.996 807.179 446.364 805.724 446.364C804.603 446.364 803.705 446.178 803.031 445.807C802.357 445.428 801.838 445 801.474 444.523C801.111 444.038 800.83 443.636 800.634 443.318H800.315V446H797.724ZM800.361 437.273C800.361 438.591 800.554 439.754 800.94 440.761C801.327 441.761 801.891 442.545 802.634 443.114C803.376 443.674 804.285 443.955 805.361 443.955C806.482 443.955 807.418 443.659 808.168 443.068C808.925 442.47 809.493 441.667 809.872 440.659C810.259 439.644 810.452 438.515 810.452 437.273C810.452 436.045 810.262 434.939 809.884 433.955C809.512 432.962 808.948 432.178 808.19 431.602C807.44 431.019 806.497 430.727 805.361 430.727C804.27 430.727 803.353 431.004 802.611 431.557C801.868 432.102 801.308 432.867 800.929 433.852C800.55 434.83 800.361 435.97 800.361 437.273ZM817.19 446V443.955L824.872 435.545C825.774 434.561 826.516 433.705 827.099 432.977C827.683 432.242 828.115 431.553 828.395 430.909C828.683 430.258 828.827 429.576 828.827 428.864C828.827 428.045 828.63 427.337 828.236 426.739C827.849 426.14 827.319 425.678 826.645 425.352C825.971 425.027 825.213 424.864 824.372 424.864C823.478 424.864 822.698 425.049 822.031 425.42C821.372 425.784 820.861 426.295 820.497 426.955C820.141 427.614 819.963 428.386 819.963 429.273H817.281C817.281 427.909 817.596 426.712 818.224 425.682C818.853 424.652 819.709 423.848 820.793 423.273C821.884 422.697 823.107 422.409 824.463 422.409C825.827 422.409 827.035 422.697 828.088 423.273C829.141 423.848 829.967 424.625 830.565 425.602C831.164 426.58 831.463 427.667 831.463 428.864C831.463 429.72 831.308 430.557 830.997 431.375C830.694 432.186 830.164 433.091 829.406 434.091C828.656 435.083 827.615 436.295 826.281 437.727L821.054 443.318V443.5H831.872V446H817.19ZM844.747 422.727V446H841.929V425.682H841.793L836.111 429.455V426.591L841.929 422.727H844.747ZM850.895 441.227V438.909L861.122 422.727H862.804V426.318H861.668L853.94 438.545V438.727H867.713V441.227H850.895ZM861.849 446V440.523V439.443V422.727H864.531V446H861.849Z" fill="black"/>
</svg>
